<?xml version="1.0" standalone="no"?>
<!DOCTYPE svg PUBLIC "-//W3C//DTD SVG 20010904//EN"
 "http://www.w3.org/TR/2001/REC-SVG-20010904/DTD/svg10.dtd">
<svg version="1.0" xmlns="http://www.w3.org/2000/svg"
 width="600.000000pt" height="600.000000pt" viewBox="0 0 600.000000 600.000000"
 preserveAspectRatio="xMidYMid meet">

<g transform="translate(0.000000,600.000000) scale(0.100000,-0.100000)"
fill="#000000" stroke="none">
<path d="M1206 4960 c-3 -14 -10 -55 -15 -91 -24 -149 -82 -270 -169 -351 -61
-57 -110 -85 -254 -143 -107 -43 -137 -65 -90 -65 38 0 141 -32 209 -65 93
-46 176 -127 226 -222 37 -72 76 -199 78 -257 1 -21 7 -9 18 41 35 142 105
242 233 331 63 43 205 119 298 159 24 10 24 11 5 18 -143 49 -237 114 -326
225 -71 90 -149 243 -183 360 -19 66 -25 79 -30 60z m180 -556 c32 -34 70 -68
83 -77 14 -9 23 -18 20 -20 -2 -2 -37 -25 -78 -52 -41 -27 -102 -75 -137 -107
l-62 -58 -46 64 c-40 57 -96 109 -177 167 -22 15 -22 15 25 43 64 37 150 125
187 191 l31 55 47 -73 c26 -39 74 -99 107 -133z"/>
<path d="M3510 4363 c-102 -11 -333 -47 -385 -60 -33 -8 -76 -18 -95 -23 -101
-24 -217 -78 -340 -158 -93 -61 -152 -114 -195 -179 -15 -24 -30 -43 -32 -43
-3 0 -37 14 -76 32 -61 26 -87 32 -173 36 -229 10 -387 -51 -509 -196 -63 -74
-106 -156 -130 -247 -16 -63 -21 -220 -6 -229 4 -3 11 -21 14 -40 3 -20 17
-59 32 -87 14 -29 24 -53 23 -54 -2 -1 -36 -25 -77 -53 -126 -87 -235 -205
-338 -368 -101 -159 -150 -295 -173 -481 -26 -202 25 -365 146 -472 82 -72
135 -91 281 -102 136 -9 203 -5 268 16 22 7 64 21 94 30 76 23 180 73 221 107
19 15 38 28 43 28 5 0 27 15 50 34 73 58 80 60 136 31 89 -45 195 -73 320 -86
106 -10 138 -10 254 6 72 10 147 24 166 31 18 8 47 14 63 14 16 0 44 6 63 14
19 8 62 22 95 30 33 9 85 27 114 41 29 14 56 25 61 25 4 0 30 -18 58 -40 122
-98 265 -139 517 -150 192 -9 302 0 425 31 163 42 266 97 372 198 23 21 50 45
60 53 21 16 44 53 79 128 23 49 25 65 22 146 -3 80 -8 100 -38 160 -19 38 -48
83 -65 100 -16 17 -46 48 -66 70 -38 41 -119 111 -156 135 -29 18 -29 33 1 72
13 18 43 84 67 147 42 110 44 120 43 220 0 95 -3 112 -33 184 -41 98 -60 126
-133 196 -97 92 -279 170 -398 170 -33 0 -60 4 -60 9 0 5 7 26 17 47 21 51 24
232 4 289 -14 40 -84 117 -151 166 -84 62 -288 93 -480 72z m343 -152 c54 -9
97 -43 97 -77 0 -31 -84 -100 -190 -156 -47 -24 -94 -47 -105 -50 -11 -4 -69
-24 -130 -46 -164 -60 -162 -59 -270 -91 -207 -61 -241 -71 -299 -81 -65 -11
-255 -14 -280 -4 -25 10 -19 27 20 52 54 35 95 47 280 81 319 59 330 63 564
196 52 30 116 59 143 65 64 16 59 30 -10 30 -52 0 -93 -9 -213 -45 -46 -14
-124 -25 -360 -50 -74 -8 -162 -20 -195 -26 -33 -6 -73 -13 -89 -16 -46 -9
-28 15 43 54 81 44 363 138 461 152 41 6 86 13 100 15 49 7 386 5 433 -3z m67
-309 c0 -10 -69 -67 -130 -109 -50 -34 -185 -104 -270 -141 -57 -24 -170 -42
-170 -26 0 12 79 56 176 98 123 53 230 105 256 125 55 43 138 75 138 53z
m-1675 -153 c47 -23 101 -59 130 -88 52 -50 116 -126 125 -146 3 -6 15 -25 28
-41 29 -37 105 -155 100 -157 -2 -1 -13 -8 -26 -15 -21 -11 -25 -10 -49 19
-47 55 -90 92 -135 115 -78 39 -160 93 -261 172 -84 66 -113 83 -135 80 -25
-3 -27 -7 -30 -51 -2 -38 3 -58 24 -95 64 -110 133 -185 188 -206 32 -11 6
-22 -82 -34 -46 -7 -122 -26 -170 -43 -130 -46 -132 -46 -158 27 -12 34 -27
93 -34 132 -12 74 -6 110 37 202 77 168 261 221 448 129z m1635 7 c0 -25 -34
-55 -102 -90 -38 -20 -68 -32 -68 -28 0 10 87 94 120 116 30 20 50 21 50 2z
m428 -162 c84 -28 177 -112 188 -169 9 -51 -14 -180 -43 -240 -33 -66 -118
-180 -158 -211 -30 -23 -37 -24 -76 -14 -24 6 -84 14 -133 18 l-88 7 -18 45
-18 45 26 28 c14 15 31 27 36 27 6 0 25 20 43 43 52 68 146 160 191 186 49 29
58 48 36 72 -29 33 -177 16 -223 -25 -9 -7 -30 -21 -47 -29 -17 -9 -45 -29
-62 -45 -17 -16 -43 -37 -57 -46 l-27 -18 -65 67 c-74 74 -75 62 17 127 25 17
71 54 104 82 45 38 72 53 115 63 67 15 197 9 259 -13z m-848 -269 c73 -18 150
-53 157 -71 8 -21 -31 -59 -86 -85 -106 -50 -150 -69 -159 -69 -5 0 -29 -11
-53 -25 -54 -30 -85 -44 -169 -80 -142 -60 -250 -117 -316 -166 -38 -28 -71
-55 -74 -58 -21 -26 -120 -96 -190 -134 -118 -64 -248 -96 -416 -104 -125 -6
-132 -5 -142 14 -8 14 -8 32 -1 59 12 43 66 144 78 144 3 0 14 12 23 28 19 31
145 157 200 199 51 39 186 123 197 123 5 0 11 3 13 8 5 13 143 75 268 121 195
72 439 121 560 113 30 -2 80 -10 110 -17z m-1196 -204 c3 -4 -22 -28 -57 -52
-90 -63 -138 -109 -251 -244 -115 -137 -166 -188 -251 -253 -72 -55 -94 -78
-135 -137 -47 -68 -78 -142 -99 -236 -11 -46 -29 -110 -41 -143 -11 -32 -19
-60 -16 -63 2 -3 22 -7 43 -10 34 -4 43 0 84 39 26 23 50 54 54 68 4 14 11 30
15 35 5 6 31 55 59 110 31 62 70 120 100 151 26 27 50 56 52 63 9 25 39 4 39
-26 0 -28 14 -90 29 -128 21 -54 74 -155 82 -155 5 0 9 -10 9 -23 0 -27 -53
-80 -167 -166 -105 -79 -177 -111 -285 -127 -122 -17 -169 -5 -226 61 -61 69
-67 88 -66 225 1 147 22 240 84 365 22 45 40 88 40 97 0 9 9 20 20 23 11 3 23
17 26 31 3 13 10 24 15 24 5 0 15 12 23 28 8 15 38 55 68 88 29 33 62 72 73
86 11 13 35 30 53 38 18 7 37 21 43 31 5 11 16 19 23 19 7 0 26 10 41 22 15
12 55 35 89 51 34 16 68 34 76 42 8 7 42 18 75 25 33 6 80 18 105 25 73 23
165 31 174 16z m1408 -132 c-15 -113 -193 -333 -352 -434 -41 -26 -87 -55
-101 -65 -66 -46 -357 -183 -467 -220 l-123 -41 -212 -2 c-187 -2 -216 0 -245
16 -39 21 -94 76 -87 87 3 5 38 8 78 8 79 1 115 11 277 82 153 67 216 99 328
172 58 37 110 68 117 68 15 0 124 56 145 75 9 8 24 15 33 15 8 0 35 15 59 33
66 51 260 147 295 147 35 0 218 62 226 77 13 21 32 9 29 -18z m121 -141 c7
-20 -21 -116 -51 -172 -27 -52 -179 -209 -193 -200 -5 2 30 57 77 122 85 116
144 217 144 247 0 18 16 20 23 3z m352 -25 c69 -7 194 -48 290 -93 98 -47 212
-142 282 -235 49 -65 83 -138 71 -151 -3 -3 -23 5 -44 16 -21 12 -67 31 -103
42 -59 19 -79 20 -201 12 -74 -4 -180 -8 -235 -8 -96 -1 -102 0 -145 30 -25
17 -57 39 -72 48 l-27 16 24 64 c16 42 26 96 30 158 9 122 8 122 48 114 17 -4
55 -10 82 -13z m-279 -114 c-4 -23 -15 -54 -26 -68 -29 -41 -99 -105 -106 -98
-7 7 69 161 94 190 8 9 22 17 30 17 11 0 13 -9 8 -41z m-5 -106 c-5 -10 -23
-31 -40 -47 -42 -40 -41 -12 1 31 35 36 54 44 39 16z m91 -300 c7 -4 137 -11
288 -14 200 -5 298 -12 360 -24 47 -10 102 -20 123 -22 20 -3 37 -7 37 -10 0
-8 -22 -27 -94 -81 -115 -86 -328 -142 -548 -142 -140 0 -456 59 -465 87 -3 7
13 23 34 36 52 34 165 139 182 170 11 21 17 24 42 17 16 -5 34 -12 41 -17z
m-488 -65 c-12 -22 -47 -58 -56 -58 -15 0 -8 23 14 47 23 24 54 32 42 11z
m-304 -16 c0 -13 -90 -62 -116 -62 -32 0 -44 29 -18 44 17 10 66 20 117 24 9
1 17 -1 17 -6z"/>
<path d="M4206 3143 c-52 -18 -66 -31 -66 -58 0 -22 17 -35 45 -35 11 0 75 90
75 105 0 7 -9 5 -54 -12z"/>
<path d="M2859 2991 c-42 -8 -86 -41 -119 -88 -22 -32 -22 -63 0 -63 39 0 230
129 230 155 0 7 -68 4 -111 -4z"/>
<path d="M2267 2826 c-33 -14 -60 -26 -61 -28 -26 -34 -36 -58 -36 -81 0 -27
2 -29 28 -23 25 7 91 70 92 89 0 5 14 22 31 38 38 35 23 36 -54 5z"/>
<path d="M2356 2781 c-76 -42 -111 -102 -70 -118 21 -8 83 22 91 44 6 17 33
80 41 96 6 12 -11 6 -62 -22z"/>
<path d="M2452 2728 c-28 -22 -42 -40 -42 -56 0 -14 5 -22 12 -20 14 5 82 98
75 104 -2 2 -22 -11 -45 -28z"/>
<path d="M3281 2794 l-42 -56 47 7 c46 7 47 6 40 -19 -6 -24 -4 -26 23 -26 16
0 37 7 45 16 20 20 21 60 1 68 -8 3 -15 14 -15 24 0 22 -19 42 -41 42 -9 0
-35 -25 -58 -56z"/>
<path d="M4113 2733 c-18 -7 -16 -48 3 -64 10 -8 45 -14 87 -15 l71 -2 -46 44
c-45 42 -77 53 -115 37z"/>
<path d="M4067 2623 c-14 -14 -6 -43 16 -57 12 -7 44 -16 70 -20 l48 -6 -38
45 c-27 32 -45 45 -63 45 -15 0 -30 -3 -33 -7z"/>
<path d="M3916 2169 c-18 -26 -11 -48 20 -60 25 -9 81 -2 89 11 6 10 -62 70
-80 70 -8 0 -21 -10 -29 -21z"/>
<path d="M3840 2100 c0 -12 33 -30 54 -30 27 0 18 18 -15 29 -39 13 -39 13
-39 1z"/>
<path d="M596 3522 c-34 -168 -92 -250 -219 -311 -45 -22 -104 -50 -132 -62
l-50 -21 67 -18 c183 -48 281 -148 327 -333 l18 -72 7 40 c25 133 134 243 330
336 62 29 76 39 61 44 -69 21 -149 72 -202 129 -74 80 -116 150 -156 264 l-33
91 -18 -87z m168 -351 c32 -29 54 -56 49 -60 -4 -4 -33 -23 -63 -43 -30 -21
-73 -55 -94 -77 l-40 -40 -33 49 c-18 28 -57 68 -86 91 -28 23 -53 44 -55 48
-1 4 9 13 22 19 39 18 102 79 136 132 l32 50 37 -58 c21 -31 64 -81 95 -111z"/>
<path d="M5080 1963 c0 -33 -21 -113 -44 -164 -23 -55 -103 -121 -185 -154
-40 -16 -74 -32 -77 -36 -2 -4 14 -10 37 -14 140 -24 251 -135 275 -275 l7
-45 14 54 c27 102 86 166 228 242 74 40 77 43 54 53 -77 31 -99 45 -150 96
-54 55 -139 203 -139 242 0 9 -4 20 -10 23 -6 4 -10 -6 -10 -22z m52 -221 c14
-20 47 -59 74 -86 l49 -48 -25 -16 c-14 -9 -47 -38 -75 -64 l-50 -47 -45 48
c-25 26 -58 57 -75 70 -19 14 -25 24 -18 27 27 12 100 85 118 119 11 19 20 35
21 35 1 0 13 -17 26 -38z"/>
</g>
</svg>
