<?xml version="1.0" standalone="no"?>
<!DOCTYPE svg PUBLIC "-//W3C//DTD SVG 20010904//EN"
 "http://www.w3.org/TR/2001/REC-SVG-20010904/DTD/svg10.dtd">
<svg version="1.0" xmlns="http://www.w3.org/2000/svg"
 width="2000.000000pt" height="2000.000000pt" viewBox="0 0 2000.000000 2000.000000"
 preserveAspectRatio="xMidYMid meet">

<g transform="translate(0.000000,2000.000000) scale(0.100000,-0.100000)"
fill="#000000" stroke="none">
<path d="M5840 16352 c0 -5 -21 -9 -47 -10 -27 -1 -61 -4 -78 -6 -16 -3 -46
-8 -65 -11 -19 -3 -43 -6 -52 -7 -10 -1 -18 -6 -18 -11 0 -4 -4 -6 -9 -3 -12
8 -223 -80 -233 -96 -4 -7 -10 -9 -14 -5 -4 4 -14 -2 -21 -13 -8 -11 -18 -18
-23 -15 -4 3 -10 -2 -14 -10 -3 -8 -12 -15 -20 -15 -7 0 -30 -18 -51 -41 -20
-22 -39 -39 -41 -36 -4 4 -1512 -1502 -1648 -1646 -20 -21 -34 -42 -31 -46 3
-5 -1 -11 -8 -14 -7 -2 -26 -29 -41 -58 -16 -30 -32 -56 -35 -59 -8 -6 -34
-65 -29 -65 1 -1 -4 -12 -13 -25 -8 -14 -21 -45 -28 -70 -7 -25 -20 -67 -29
-95 -25 -76 -24 -416 1 -500 10 -33 23 -78 29 -100 7 -22 15 -44 19 -50 4 -5
15 -30 25 -55 10 -25 30 -64 46 -87 15 -23 28 -45 28 -50 0 -4 25 -36 55 -70
30 -33 55 -65 55 -70 0 -4 744 -752 1654 -1662 l1654 -1654 -1679 -1679 c-923
-923 -1679 -1683 -1679 -1688 0 -5 -11 -17 -25 -28 -14 -11 -25 -27 -25 -36 0
-9 -4 -16 -10 -16 -5 0 -10 -7 -10 -15 0 -7 -6 -18 -13 -22 -16 -10 -45 -73
-97 -208 -37 -96 -53 -237 -46 -400 4 -116 10 -157 36 -243 34 -116 76 -209
120 -270 17 -23 30 -47 30 -54 0 -17 1788 -1804 1796 -1795 3 3 31 -12 60 -34
30 -22 54 -37 54 -34 0 4 14 -3 30 -15 17 -12 30 -19 30 -16 0 3 21 -4 48 -15
45 -20 54 -23 102 -33 11 -3 25 -8 31 -12 6 -3 27 -8 47 -10 21 -2 55 -6 77
-9 59 -8 224 -8 270 -1 76 13 100 17 125 22 14 3 35 6 48 7 12 1 22 6 22 10 0
5 4 5 10 2 6 -3 10 -1 10 5 0 6 4 9 9 5 5 -3 12 -1 16 5 4 6 11 8 16 5 5 -4 9
-1 9 5 0 6 4 9 9 5 5 -3 12 -1 16 5 4 6 11 8 16 5 5 -4 9 -1 9 5 0 6 5 8 10 5
6 -3 10 -1 10 5 0 7 5 10 12 8 6 -2 20 3 29 11 36 33 47 40 53 34 3 -4 6 -1 6
5 0 7 7 12 16 12 9 0 12 5 8 12 -4 7 -3 8 5 4 7 -5 20 3 33 19 11 14 22 24 25
21 3 -3 764 754 1690 1681 l1686 1685 1662 -1662 c914 -914 1665 -1662 1669
-1661 4 1 33 -22 65 -50 32 -28 63 -51 67 -51 5 0 30 -16 57 -35 26 -19 47
-32 47 -28 0 4 11 0 25 -9 14 -9 25 -14 25 -10 0 3 16 -4 35 -16 19 -12 35
-19 35 -15 0 3 10 0 23 -7 12 -7 34 -13 48 -14 14 0 32 -5 39 -9 7 -5 27 -10
44 -12 17 -1 45 -5 61 -9 35 -6 249 -7 285 0 14 3 42 7 62 10 21 3 46 10 56
15 11 6 22 8 25 5 2 -3 22 2 43 11 21 8 44 13 51 11 7 -3 13 -1 13 5 0 6 4 8
9 5 5 -3 11 0 14 7 3 7 23 19 46 27 23 7 41 18 41 23 0 6 3 7 7 4 3 -4 12 -2
20 4 7 6 13 9 13 5 0 -3 8 2 19 12 29 26 64 52 73 52 4 0 23 16 43 37 19 20
35 33 35 29 0 -7 1595 1590 1648 1650 17 20 32 41 32 46 0 5 6 15 13 22 6 8
18 22 24 32 7 11 23 35 36 54 12 19 34 64 49 100 75 186 91 295 79 540 -5 108
-69 319 -121 400 -9 14 -22 37 -29 51 -7 15 -33 50 -57 77 -24 28 -44 54 -44
59 0 4 -751 759 -1669 1677 l-1668 1668 1681 1684 c925 926 1693 1697 1709
1714 15 17 25 35 22 40 -3 4 2 10 10 14 8 3 15 12 15 21 0 8 4 15 8 15 4 0 16
20 26 45 11 25 23 45 28 45 4 0 8 11 8 24 0 13 5 26 12 28 6 2 12 13 13 24 0
11 6 33 12 50 55 150 64 397 21 582 -10 46 -24 96 -30 110 -6 15 -14 36 -18
47 -9 25 -52 111 -71 145 -42 74 -181 218 -961 996 -774 772 -938 931 -938
908 0 -4 -9 1 -19 10 -11 10 -26 18 -34 20 -8 1 -26 10 -40 19 -15 10 -27 15
-27 11 0 -3 -12 1 -26 11 -14 9 -34 18 -45 21 -10 2 -28 6 -40 9 -12 2 -26 8
-33 13 -6 5 -18 10 -26 10 -8 0 -26 3 -40 7 -37 9 -203 27 -237 25 -7 -1 -38
-2 -68 -3 -30 -1 -55 -5 -55 -8 0 -3 -11 -5 -25 -4 -14 2 -25 0 -25 -4 0 -4
-16 -7 -35 -6 -19 0 -35 -3 -35 -8 0 -4 -4 -5 -10 -2 -5 3 -10 2 -10 -2 0 -5
-9 -10 -20 -11 -11 -1 -29 -3 -40 -4 -11 -1 -20 -6 -20 -11 0 -4 -4 -5 -10 -2
-5 3 -10 1 -10 -5 0 -6 -4 -9 -9 -5 -5 3 -12 1 -16 -5 -4 -6 -11 -8 -16 -5 -5
4 -9 1 -9 -5 0 -6 -4 -8 -10 -5 -5 3 -10 1 -10 -5 0 -7 -6 -10 -12 -8 -7 3
-18 0 -25 -6 -31 -28 -39 -32 -51 -28 -6 2 -12 -1 -12 -7 0 -7 -11 -16 -25
-21 -14 -5 -25 -14 -25 -20 0 -6 -4 -9 -9 -6 -5 3 -20 -5 -32 -19 -13 -13 -27
-25 -31 -25 -4 0 -764 -757 -1689 -1681 l-1681 -1682 -1679 1679 c-923 923
-1679 1675 -1679 1670 0 -6 -15 4 -32 20 -47 44 -118 97 -118 89 0 -4 -16 5
-35 19 -19 15 -35 24 -35 21 0 -4 -16 3 -35 15 -19 12 -35 18 -35 15 0 -4 -7
-2 -15 5 -9 7 -31 14 -51 15 -19 2 -41 8 -49 15 -8 7 -29 14 -47 16 -18 2 -46
6 -63 9 -16 3 -62 7 -101 9 -38 1 -76 6 -82 10 -7 4 -12 3 -12 -2z"/>
</g>
</svg>
