<?xml version="1.0" standalone="no"?>
<!DOCTYPE svg PUBLIC "-//W3C//DTD SVG 20010904//EN"
 "http://www.w3.org/TR/2001/REC-SVG-20010904/DTD/svg10.dtd">
<svg version="1.0" xmlns="http://www.w3.org/2000/svg"
 width="2400.000000pt" height="2382.000000pt" viewBox="0 0 2400.000000 2382.000000"
 preserveAspectRatio="xMidYMid meet">

<g transform="translate(0.000000,2382.000000) scale(0.100000,-0.100000)"
fill="#000000" stroke="none">
<path d="M9465 23814 c-538 -27 -935 -70 -1382 -149 -1363 -243 -2692 -790
-3833 -1581 -1848 -1279 -3201 -3138 -3840 -5274 -645 -2161 -525 -4509 338
-6590 422 -1019 1001 -1937 1760 -2795 168 -189 630 -647 827 -819 1411 -1233
3068 -2019 4895 -2321 504 -83 889 -115 1460 -122 567 -7 898 10 1390 73 1411
178 2809 681 3994 1436 l140 89 2845 -2845 c2041 -2039 2858 -2850 2890 -2866
276 -137 785 24 1264 402 132 105 1154 1121 1294 1288 135 161 249 332 332
500 164 331 202 600 115 799 -22 51 -302 333 -2889 2921 -1576 1576 -2865
2868 -2865 2872 0 4 31 58 68 120 718 1190 1184 2590 1331 4003 39 379 46 529
46 1045 0 497 -5 614 -41 975 -331 3353 -2386 6320 -5419 7825 -1170 580
-2373 903 -3730 1000 -149 11 -857 21 -990 14z m795 -3274 c1480 -102 2843
-676 3945 -1661 155 -139 455 -442 581 -589 1189 -1380 1751 -3160 1568 -4965
-141 -1384 -712 -2676 -1645 -3720 -139 -155 -443 -455 -589 -581 -666 -574
-1395 -989 -2220 -1264 -1356 -453 -2811 -451 -4169 5 -1934 650 -3467 2179
-4125 4112 -171 505 -275 996 -328 1558 -17 187 -18 932 0 1110 41 416 100
758 191 1110 634 2432 2640 4307 5111 4779 284 54 589 93 860 109 135 8 689 6
820 -3z"/>
</g>
</svg>
