<?xml version="1.0" standalone="no"?>
<!DOCTYPE svg PUBLIC "-//W3C//DTD SVG 20010904//EN"
 "http://www.w3.org/TR/2001/REC-SVG-20010904/DTD/svg10.dtd">
<svg version="1.0" xmlns="http://www.w3.org/2000/svg"
 width="600.000000pt" height="600.000000pt" viewBox="0 0 600.000000 600.000000"
 preserveAspectRatio="xMidYMid meet">

<g transform="translate(0.000000,600.000000) scale(0.100000,-0.100000)"
fill="#000000" stroke="none">
<path d="M3120 5401 c-81 -25 -161 -84 -190 -142 -27 -53 -27 -149 1 -209 l21
-45 14 30 c7 17 13 35 14 42 0 6 14 23 31 37 107 90 273 -70 256 -248 -8 -80
-94 -280 -147 -341 -38 -44 -148 -234 -178 -308 -80 -198 -79 -397 1 -484 25
-27 53 -30 65 -5 5 9 12 51 16 92 16 180 79 292 296 525 56 61 120 133 141
160 22 28 44 56 50 63 27 33 90 165 110 232 33 107 33 262 1 341 -59 148 -249
270 -416 268 -33 0 -72 -4 -86 -8z m288 -105 c40 -21 68 -54 96 -116 29 -62
32 -98 13 -152 -18 -51 -25 -56 -32 -22 -28 127 -72 230 -115 269 -38 34 -14
48 38 21z m72 -430 c0 -13 -9 -34 -21 -47 l-21 -24 6 25 c3 14 6 35 6 48 0 13
6 22 15 22 9 0 15 -9 15 -24z"/>
<path d="M2563 5024 c-61 -22 -126 -84 -153 -146 -19 -43 -24 -72 -24 -153 -1
-90 2 -105 27 -156 16 -32 52 -79 80 -107 209 -201 211 -204 252 -294 22 -48
42 -87 45 -88 17 -1 33 84 32 163 -2 74 -8 106 -43 205 -73 211 -82 251 -70
292 17 57 53 85 106 82 40 -1 45 1 51 24 9 35 -11 96 -42 133 -46 55 -171 76
-261 45z m-27 -141 c-4 -16 -11 -59 -16 -98 -5 -38 -12 -83 -17 -99 l-9 -29
-28 33 c-24 29 -27 40 -23 81 6 52 19 82 50 117 29 32 51 29 43 -5z m14 -304
c0 -11 -4 -17 -10 -14 -5 3 -10 13 -10 21 0 8 5 14 10 14 6 0 10 -9 10 -21z"/>
<path d="M2560 3619 c-63 -6 -173 -19 -245 -30 -71 -11 -158 -25 -192 -30 -35
-5 -129 -27 -210 -50 -332 -91 -441 -145 -479 -235 -35 -84 -47 -469 -19 -657
43 -293 145 -683 206 -786 11 -18 19 -35 17 -36 -2 -2 -59 -15 -128 -30 -349
-74 -615 -217 -651 -347 -24 -91 15 -179 114 -259 77 -62 327 -188 462 -234
61 -20 119 -42 130 -48 21 -11 54 -47 55 -60 0 -21 45 -69 80 -87 150 -76 958
-158 1377 -139 496 22 970 84 1074 141 20 11 47 38 60 60 47 78 56 85 141 113
125 40 202 72 307 126 101 52 110 57 179 102 88 58 162 158 162 219 0 100 -85
195 -240 272 -58 28 -140 62 -182 76 -43 14 -78 28 -78 31 0 4 22 18 49 33 27
14 69 39 93 56 23 17 54 38 68 47 55 37 185 161 222 211 172 233 258 496 228
701 -18 126 -36 183 -81 251 -50 75 -107 124 -184 161 -67 33 -120 36 -283 19
-52 -6 -104 -7 -117 -4 -13 3 -45 33 -70 66 -89 113 -183 156 -530 248 -132
34 -389 78 -535 91 -153 14 -666 18 -800 8z m834 -100 c288 -23 648 -108 801
-190 30 -16 61 -29 69 -29 17 0 86 -77 86 -96 0 -25 -91 -92 -161 -118 -84
-31 -87 -31 -141 -7 -84 38 -204 84 -238 92 -19 4 -69 16 -110 27 -261 69
-472 95 -770 96 -276 1 -352 -6 -560 -48 -41 -8 -93 -18 -115 -21 -96 -16
-355 -94 -378 -115 -5 -4 4 -12 20 -18 110 -41 151 -53 253 -76 222 -49 480
-76 737 -76 101 0 131 -9 94 -29 -25 -14 -270 -14 -416 -1 -280 24 -657 94
-739 136 -17 9 -53 17 -81 19 -27 1 -75 14 -106 28 -64 28 -139 91 -139 116 0
44 167 145 309 186 170 50 390 96 581 121 180 23 736 25 1004 3z m-789 -291
c36 -16 31 -28 -13 -28 -45 0 -56 8 -41 27 14 16 21 16 54 1z m470 -12 c40
-18 40 -18 15 -28 -17 -6 -60 -6 -130 1 -58 6 -131 11 -162 11 -57 0 -82 14
-57 32 25 16 288 4 334 -16z m1576 -87 c203 4 208 2 300 -86 132 -126 164
-347 84 -582 -32 -95 -119 -261 -177 -336 -46 -60 -162 -163 -250 -223 -77
-52 -419 -222 -447 -222 -6 0 11 44 39 98 27 53 54 109 59 123 8 22 24 31 92
53 90 29 195 81 249 124 218 172 319 363 307 582 -11 197 -112 310 -277 310
-46 0 -120 -28 -152 -57 -10 -9 -20 -14 -22 -12 -2 2 -6 57 -9 122 -6 110 -5
118 11 110 9 -4 96 -6 193 -4z m-3100 -73 c206 -114 595 -189 1125 -217 344
-18 758 5 1106 61 190 31 420 100 515 156 23 13 46 24 51 24 12 0 11 -43 -5
-271 -11 -172 -41 -370 -73 -489 -5 -19 -19 -75 -30 -123 -95 -404 -282 -661
-575 -789 -71 -31 -171 -65 -229 -78 -22 -5 -84 -20 -136 -32 -85 -20 -123
-22 -365 -22 -301 -1 -319 1 -586 70 -82 21 -230 88 -308 138 -129 85 -247
226 -333 401 -34 68 -72 187 -103 320 -14 61 -34 146 -45 190 -38 162 -59 323
-67 528 -4 105 -3 157 4 157 6 0 30 -11 54 -24z m1577 -112 c34 -10 26 -24
-13 -24 -33 0 -43 8 -28 23 8 8 12 8 41 1z m1581 -79 c41 -21 79 -69 92 -118
27 -99 -7 -282 -69 -382 -34 -54 -135 -159 -200 -207 -58 -43 -198 -111 -212
-103 -5 3 0 36 10 73 30 111 88 391 100 482 14 108 51 191 103 236 35 30 48
34 94 34 30 0 67 -7 82 -15z m-2994 -1202 c30 -46 27 -48 -79 -57 -43 -4 -97
-14 -120 -21 -23 -8 -47 -15 -55 -15 -32 0 -237 -96 -290 -135 -66 -48 -91
-97 -71 -135 16 -31 40 -25 40 9 0 22 9 37 33 54 100 76 332 148 567 177 l65
8 55 -53 c124 -118 321 -217 530 -265 105 -24 94 -27 -116 -34 -115 -3 -223
-10 -239 -15 l-30 -8 25 -6 c170 -42 1635 -41 1785 2 28 8 26 9 -25 14 -91 11
-199 16 -314 17 -60 0 -107 2 -104 5 3 3 52 17 109 32 199 50 384 143 498 250
49 45 87 58 148 50 229 -29 546 -137 567 -193 3 -9 6 -27 6 -40 0 -31 34 -33
50 -4 34 63 -83 164 -275 237 -92 36 -177 61 -220 66 -28 3 -24 6 40 36 81 38
93 37 243 -10 124 -40 255 -107 309 -159 91 -89 76 -162 -56 -255 -73 -53
-207 -125 -229 -125 -7 0 -31 -9 -54 -19 -153 -70 -632 -162 -988 -191 -80 -6
-178 -15 -218 -21 -95 -12 -641 -12 -751 1 -47 5 -147 14 -221 20 -532 45
-1016 163 -1220 298 -141 94 -180 144 -165 214 11 49 89 118 185 164 144 70
393 141 497 143 61 1 63 0 88 -36z m169 -842 c332 -53 592 -71 1036 -71 449 0
713 18 1053 72 71 11 130 18 133 16 6 -7 -60 -34 -126 -52 -110 -30 -199 -46
-395 -70 -389 -48 -689 -60 -955 -37 -74 6 -164 14 -200 17 -36 3 -92 9 -125
14 -33 5 -103 14 -155 20 -155 19 -302 54 -390 94 -47 21 -23 20 124 -3z"/>
<path d="M1686 3260 c-51 -20 -99 -57 -91 -71 5 -8 72 26 134 68 41 28 23 29
-43 3z"/>
<path d="M4120 3257 c85 -58 130 -79 130 -64 0 19 -41 48 -98 70 -60 24 -73
21 -32 -6z"/>
<path d="M1598 3257 c-16 -6 -28 -17 -28 -24 0 -10 5 -11 18 -4 16 9 51 43 41
40 -2 -1 -16 -6 -31 -12z"/>
<path d="M1825 3260 c-11 -4 -42 -14 -68 -21 -55 -14 -127 -62 -127 -84 0 -21
17 -19 53 9 18 13 55 35 82 49 70 35 114 70 60 47z"/>
<path d="M4080 3212 c47 -26 95 -55 107 -62 26 -17 42 -6 27 18 -15 23 -130
79 -179 87 -37 5 -34 2 45 -43z"/>
<path d="M4241 3241 c13 -11 28 -17 33 -14 11 7 -22 33 -42 33 -9 0 -6 -7 9
-19z"/>
<path d="M1830 3211 c-92 -30 -165 -79 -146 -98 7 -8 60 18 171 82 66 38 58
43 -25 16z"/>
<path d="M4035 3171 c109 -60 135 -70 135 -52 0 28 -123 90 -210 106 -25 4 -5
-11 75 -54z"/>
<path d="M1890 3184 c-86 -29 -136 -57 -150 -85 -17 -31 5 -24 121 42 139 78
140 81 29 43z"/>
<path d="M3895 3194 c32 -25 206 -116 211 -111 21 21 -77 82 -176 111 -49 14
-53 14 -35 0z"/>
<path d="M4490 3040 c0 -5 6 -10 14 -10 8 0 18 5 21 10 3 6 -3 10 -14 10 -12
0 -21 -4 -21 -10z"/>
<path d="M4503 3003 c-13 -5 -19 -33 -8 -33 10 0 65 30 65 35 0 6 -41 5 -57
-2z"/>
<path d="M4980 2878 c0 -13 9 -43 20 -67 11 -24 20 -49 20 -57 0 -8 5 -14 10
-14 18 0 11 93 -10 128 -23 37 -40 42 -40 10z"/>
<path d="M4320 1890 c-13 -8 -12 -10 3 -10 9 0 17 5 17 10 0 12 -1 12 -20 0z"/>
<path d="M4340 1868 c-40 -11 -62 -27 -55 -38 8 -12 36 -1 70 26 17 13 28 24
25 23 -3 0 -21 -5 -40 -11z"/>
<path d="M4383 1839 c-41 -12 -103 -48 -103 -60 0 -24 83 5 132 46 31 26 24
29 -29 14z"/>
<path d="M1555 2972 c17 -16 68 -46 115 -67 79 -37 92 -40 190 -42 101 -3 103
-2 60 10 -25 8 -116 39 -203 70 -183 66 -205 70 -162 29z"/>
<path d="M4165 2922 c-49 -13 -106 -28 -125 -32 -19 -4 -104 -24 -189 -44 -85
-20 -195 -43 -245 -51 -50 -8 -136 -24 -191 -35 l-100 -19 230 3 c127 2 244 8
260 14 17 6 66 18 110 28 97 20 257 70 305 94 19 10 43 27 53 38 17 19 17 20
0 24 -10 2 -58 -7 -108 -20z"/>
<path d="M1530 2895 c0 -21 91 -64 147 -71 26 -3 52 -8 58 -10 5 -3 1 2 -10
11 -28 23 -159 85 -179 85 -9 0 -16 -7 -16 -15z"/>
<path d="M1530 2826 c0 -7 7 -19 16 -27 18 -15 114 -30 114 -17 0 4 -4 8 -10
8 -5 0 -26 11 -46 25 -41 28 -74 33 -74 11z"/>
<path d="M4140 2769 c-74 -23 -105 -31 -210 -53 -41 -9 -120 -27 -175 -41 -55
-13 -116 -26 -135 -27 -19 -2 24 -7 95 -11 182 -11 337 18 483 89 119 58 82
85 -58 43z"/>
<path d="M1560 2730 c0 -5 12 -10 28 -10 21 0 24 2 12 10 -20 13 -40 13 -40 0z"/>
<path d="M4195 2653 c-81 -17 -273 -67 -306 -78 -23 -8 -52 -15 -65 -15 -12 0
-25 -4 -28 -8 -7 -11 238 -4 304 9 98 20 186 77 144 93 -16 6 -17 6 -49 -1z"/>
<path d="M3748 2543 c6 -2 18 -2 25 0 6 3 1 5 -13 5 -14 0 -19 -2 -12 -5z"/>
<path d="M4100 2523 c-14 -2 -62 -13 -106 -24 -45 -10 -99 -19 -120 -19 -20 0
-35 -2 -33 -5 3 -2 70 -7 150 -11 138 -5 146 -5 188 18 24 13 45 28 45 33 1
11 -81 16 -124 8z"/>
<path d="M4089 2405 c-3 -2 -30 -9 -60 -14 l-54 -9 76 -1 c57 -1 80 3 89 14
11 13 8 15 -17 15 -16 0 -32 -2 -34 -5z"/>
<path d="M3960 1910 c-8 -5 -10 -10 -5 -10 6 0 17 5 25 10 8 5 11 10 5 10 -5
0 -17 -5 -25 -10z"/>
<path d="M3925 1839 l-40 -19 60 2 c48 2 60 7 63 21 5 23 -30 21 -83 -4z"/>
<path d="M3940 1768 c-19 -5 -64 -19 -100 -30 -36 -12 -81 -25 -100 -29 -23
-5 4 -7 75 -6 96 2 116 6 154 27 76 42 60 63 -29 38z"/>
<path d="M3770 1631 c-74 -15 -151 -33 -170 -39 -19 -6 -46 -13 -60 -15 -46
-6 112 -20 169 -14 58 6 201 68 201 87 0 5 -1 10 -2 9 -2 0 -64 -13 -138 -28z"/>
<path d="M3685 1510 c-148 -28 -231 -41 -305 -49 -47 -6 -101 -15 -120 -21
-19 -5 -57 -11 -85 -11 -57 -1 -53 -3 67 -20 152 -21 386 22 503 93 29 18 30
18 5 17 -14 -1 -43 -5 -65 -9z"/>
<path d="M1723 1473 c9 -2 23 -2 30 0 6 3 -1 5 -18 5 -16 0 -22 -2 -12 -5z"/>
<path d="M4103 1473 c9 -2 23 -2 30 0 6 3 -1 5 -18 5 -16 0 -22 -2 -12 -5z"/>
<path d="M1707 1433 c-27 -8 -47 -16 -45 -17 1 -1 39 1 82 4 51 3 81 10 84 18
5 17 -59 14 -121 -5z"/>
<path d="M4020 1437 c0 -12 16 -16 83 -19 45 -2 84 -2 85 -1 7 3 -75 24 -120
30 -39 5 -48 3 -48 -10z"/>
<path d="M3990 1403 c-70 -13 -11 -43 85 -43 28 0 68 -5 90 -10 36 -8 66 -5
34 3 -8 3 -48 14 -89 27 -96 29 -91 28 -120 23z"/>
<path d="M1723 1376 c-40 -12 -74 -24 -77 -27 -5 -4 85 5 188 19 27 4 51 13
54 20 6 19 -82 13 -165 -12z"/>
<path d="M1835 1328 c-16 -5 -55 -16 -85 -24 -55 -14 -54 -14 50 -8 132 8 190
16 193 29 3 14 -121 16 -158 3z"/>
<path d="M3850 1326 c0 -14 24 -18 218 -35 44 -4 79 -5 77 -2 -3 2 -44 15 -92
27 -102 27 -203 32 -203 10z"/>
<path d="M1955 1283 c-11 -2 -47 -10 -80 -18 -33 -8 -73 -17 -90 -19 -16 -2
47 -2 140 1 193 5 212 8 194 29 -11 14 -113 18 -164 7z"/>
<path d="M3730 1278 l-25 -11 35 -8 c49 -12 340 -26 340 -16 0 4 -11 7 -24 7
-14 0 -62 9 -108 20 -90 22 -179 25 -218 8z"/>
<path d="M2102 975 c3 -4 51 -13 105 -21 555 -79 855 -80 1426 0 215 29 57 32
-203 3 -143 -16 -883 -16 -1015 0 -134 16 -322 27 -313 18z"/>
</g>
</svg>
